<svg xmlns="http://www.w3.org/2000/svg" fill="none" viewBox="0 0 21 46">
  <defs/>
  <mask id="a" fill="#fff">
    <path fill-rule="evenodd" d="M21 10.5c0 .168-.004.334-.012.5H21v25h-.012c-.26 5.567-4.857 10-10.488 10C4.869 46 .273 41.567.012 36H0V11h.012A10.677 10.677 0 010 10.5C0 4.701 4.701 0 10.5 0S21 4.701 21 10.5z" clip-rule="evenodd"/>
  </mask>
  <path fill="#fff" fill-opacity=".5" d="M20.988 11l-.999-.047L19.94 12h1.048v-1zM21 11h1v-1h-1v1zm0 25v1h1v-1h-1zm-.012 0v-1h-.954l-.045.953 1 .047zM.012 36l.999-.047L.966 35H.012v1zM0 36h-1v1h1v-1zm0-25v-1h-1v1h1zm.012 0v1H1.06l-.05-1.047L.013 11zm21.975.047c.009-.181.013-.364.013-.547h-2c0 .152-.004.303-.01.453l1.997.094zM21 10h-.012v2H21v-2zm1 25.5V11h-2v24.5h2zm0 .5v-.5h-2v.5h2zm-1.012 1H21v-2h-.012v2zm-.999-1.047A9.5 9.5 0 0110.5 45v2c6.168 0 11.201-4.855 11.487-10.953l-1.998-.094zM10.5 45a9.5 9.5 0 01-9.49-9.047l-1.997.094C-.701 42.145 4.332 47 10.5 47v-2zM0 37h.012v-2H0v2zm-1-1.5v.5h2v-.5h-2zM-1 11v24.5h2V11h-2zm1.012-1H0v2h.012v-2zM-1 10.5c0 .183.004.366.013.547l1.998-.094A9.673 9.673 0 011 10.5h-2zM10.5-1C4.149-1-1 4.149-1 10.5h2A9.5 9.5 0 0110.5 1v-2zM22 10.5C22 4.149 16.851-1 10.5-1v2a9.5 9.5 0 019.5 9.5h2z" mask="url(#a)"/>
  <path fill="#FCFCFC" d="M10.646 37.354a.5.5 0 00.708 0l3.182-3.182a.5.5 0 10-.708-.707L11 36.293l-2.828-2.828a.5.5 0 10-.708.707l3.182 3.182zM10.5 10v27h1V10h-1z"/>
</svg>
