<svg xmlns="http://www.w3.org/2000/svg" fill="none" viewBox="0 0 72 72">
  <defs/>
  <circle cx="36" cy="36" r="36" fill="#C4C4C4" fill-opacity=".02"/>
  <circle cx="36" cy="36" r="35.5" stroke="#fff" stroke-opacity=".1"/>
  <path fill="#00F0B5" d="M45.426 31.395l-1.889-1.89.966-.965c.5-.5.5-1.31 0-1.809l-1.357-1.357a1.275 1.275 0 00-.904-.374c-.328 0-.655.125-.905.375l-.965.965-.965-.965a1.275 1.275 0 00-.905-.375c-.327 0-.655.125-.904.375L33.74 29.23c-.5.5-.5 1.31 0 1.808l.966.966-9.918 9.918c-.5.5-.5 1.31 0 1.809l1.356 1.357c.25.25.577.374.905.374.327 0 .654-.125.904-.374l9.918-9.919 1.89 1.89v4.566h1.278a8.953 8.953 0 008.953-8.952v-1.28h-4.567zm-3.185-5.116l1.357 1.356-.965.966-1.357-1.357.965-.965zM27.05 44.184l-1.357-1.356 9.918-9.919 1.357 1.357-9.918 9.918zm13.99-3.837V36.53l-6.394-6.395L38.5 26.28h.001l6.395 6.395h3.817c0 4.23-3.442 7.673-7.674 7.673z"/>
</svg>
