<svg xmlns="http://www.w3.org/2000/svg" fill="none" viewBox="0 0 72 72">
  <defs/>
  <circle cx="36" cy="36" r="36" fill="#C4C4C4" fill-opacity=".02"/>
  <circle cx="36" cy="36" r="35.5" stroke="#fff" stroke-opacity=".1"/>
  <path fill="#F61067" d="M48.295 34.43c.87-2.704-.997-4.624-2.038-5.227.133-1.87-1.283-3.69-3.31-3.94A3.775 3.775 0 0039.49 23c-1.22 0-2.296.588-2.989 1.484A3.773 3.773 0 0033.511 23a3.776 3.776 0 00-3.46 2.262c-2.025.252-3.441 2.071-3.309 3.94-1.041.604-2.906 2.524-2.038 5.227A4.51 4.51 0 0023 37.94c0 1.625.864 3.096 2.246 3.898-.113 2.391 1.821 4.402 4.216 4.34a4.143 4.143 0 003.675 2.235 4.153 4.153 0 003.363-1.725 4.153 4.153 0 003.363 1.725 4.143 4.143 0 003.675-2.235c2.395.062 4.328-1.95 4.216-4.34A4.495 4.495 0 0050 37.939c0-1.367-.64-2.659-1.705-3.51zm-12.592-4.577a2.775 2.775 0 01-2.102 2.682.39.39 0 00-.29.38v.803c0 .252.233.442.481.392a4.4 4.4 0 001.91-.913v11.07a2.564 2.564 0 01-2.565 2.556c-1.582 0-2.195-1.082-2.635-2.392-.809.136-.908.16-1.1.16a2.564 2.564 0 01-2.566-2.557c0-.308.042-.454.182-1.14-1.263-.521-2.424-1.202-2.424-2.955 0-1.68 1.142-2.33 2.13-2.895-.626-1.276-.636-1.45-.636-1.944 0-1.683 1.087-2.405 2.45-2.962-.124-.541-.208-.825-.208-1.133 0-1.198.973-2.173 2.257-2.173h.02l.633.013c.293-1.139.745-2.257 2.271-2.257a2.19 2.19 0 012.192 2.184v3.08zm10.28 11.041c.139.686.181.832.181 1.14 0 1.41-1.15 2.556-2.565 2.556-.193 0-.292-.023-1.1-.159-.441 1.31-1.054 2.393-2.636 2.393a2.564 2.564 0 01-2.566-2.556V33.197a4.4 4.4 0 001.91.913c.249.05.481-.14.481-.392v-.803a.39.39 0 00-.289-.38 2.775 2.775 0 01-2.102-2.682v-3.08a2.19 2.19 0 012.192-2.185c1.526 0 1.978 1.118 2.271 2.257l.632-.013h.02c1.285 0 2.258.975 2.258 2.174 0 .307-.085.591-.209 1.132 1.363.556 2.45 1.28 2.45 2.962 0 .494-.01.668-.635 1.944.988.565 2.13 1.215 2.13 2.895 0 1.754-1.161 2.434-2.424 2.955z"/>
</svg>
