<svg xmlns="http://www.w3.org/2000/svg" fill="none" viewBox="0 0 18 29">
  <defs/>
  <path fill="#FCFCFC" d="M12.6 5.4v13.5H5.4V5.4h7.2zM15.3 0H2.7A2.7 2.7 0 000 2.7v23.4a2.7 2.7 0 002.7 2.7h12.6a2.7 2.7 0 002.7-2.7V2.7A2.7 2.7 0 0015.3 0zM2.7 27a.903.903 0 01-.9-.9V2.7c0-.495.405-.9.9-.9h12.6c.495 0 .9.405.9.9v23.4c0 .495-.405.9-.9.9H2.7zM13.725 3.6h-9.45a.677.677 0 00-.675.675v15.75c0 .371.304.675.675.675h9.45a.677.677 0 00.675-.675V4.275a.677.677 0 00-.675-.675zm-2.7 19.8h-4.05a.677.677 0 00-.675.675v.45c0 .371.304.675.675.675h4.05a.677.677 0 00.675-.675v-.45a.677.677 0 00-.675-.675z"/>
</svg>
