<svg xmlns="http://www.w3.org/2000/svg" fill="none" viewBox="0 0 72 72">
  <defs/>
  <circle cx="36" cy="36" r="36" fill="#C4C4C4" fill-opacity=".02"/>
  <circle cx="36" cy="36" r="35.5" stroke="#fff" stroke-opacity=".1"/>
  <path fill="#F61067" d="M36.5 33.053a3.38 3.38 0 00-3.376 3.376 3.38 3.38 0 003.376 3.374 3.38 3.38 0 003.376-3.374 3.38 3.38 0 00-3.376-3.376zm0 4.822a1.446 1.446 0 110-2.893 1.446 1.446 0 010 2.893zm11.374-1.447c.937-1.221 1.61-2.448 1.923-3.615.363-1.363.237-2.617-.365-3.628-1.1-1.838-3.638-2.59-6.842-2.316C41.189 23.279 39.004 21 36.5 21s-4.689 2.279-6.09 5.868c-3.204-.273-5.742.478-6.84 2.318-.604 1.01-.73 2.264-.367 3.627.314 1.167.986 2.394 1.923 3.615-.937 1.222-1.61 2.449-1.923 3.617-.363 1.362-.237 2.616.365 3.627.955 1.597 2.99 2.382 5.608 2.382.384 0 .814-.07 1.22-.103 1.4 3.611 3.591 5.906 6.104 5.906s4.703-2.295 6.103-5.906c.407.034.837.103 1.22.103 2.617 0 4.653-.785 5.607-2.382.604-1.01.73-2.265.367-3.627-.314-1.168-.986-2.395-1.923-3.617zm-22.806-4.115c-.232-.858-.177-1.579.158-2.14.556-.931 1.972-1.444 3.926-1.444.2 0 .418.016.63.027a26.02 26.02 0 00-.758 3.85 23.931 23.931 0 00-2.611 2.317c-.646-.898-1.123-1.783-1.345-2.61zm3.744 5.244a19.91 19.91 0 01-1.153-1.129c.356-.379.74-.755 1.153-1.128-.013.374-.028.746-.028 1.129 0 .382.015.754.028 1.128zm-3.588 5.126c-.333-.56-.388-1.28-.156-2.14.222-.826.7-1.711 1.345-2.609.762.794 1.645 1.57 2.61 2.317.17 1.37.424 2.664.759 3.854-2.273.117-3.942-.393-4.558-1.422zm16.561-11.615a31.566 31.566 0 00-1.556-.936 31.26 31.26 0 00-1.162-.612c.768-.23 1.502-.402 2.204-.53.206.684.377 1.378.514 2.078zm-5.285-8.14c1.45 0 2.984 1.57 4.11 4.217-1.308.26-2.693.673-4.11 1.227a24.488 24.488 0 00-4.11-1.228c1.126-2.647 2.66-4.215 4.11-4.215zm-4.771 6.062c.702.128 1.436.3 2.203.53-.387.195-.775.395-1.161.612-.538.3-1.052.616-1.557.936a21.9 21.9 0 01.515-2.078zm-.515 12.799c.506.32 1.019.637 1.557.936.404.226.806.391 1.21.594-.783.237-1.536.42-2.252.55a21.926 21.926 0 01-.515-2.08zm5.286 8.14c-1.456 0-2.997-1.581-4.124-4.248a24.305 24.305 0 004.124-1.225 24.25 24.25 0 004.123 1.225c-1.127 2.667-2.667 4.248-4.123 4.248zm4.771-6.06a20.453 20.453 0 01-2.25-.55c.403-.203.804-.368 1.209-.593a31.49 31.49 0 001.556-.937c-.145.736-.32 1.427-.515 2.08zm.886-4.664a28.483 28.483 0 01-2.865 1.837 28.65 28.65 0 01-2.79 1.362 28.76 28.76 0 01-2.794-1.362 28.589 28.589 0 01-2.865-1.837 29.51 29.51 0 010-5.553 28.483 28.483 0 015.656-3.204c.912.386 1.846.84 2.792 1.367a28.59 28.59 0 012.866 1.837 29.71 29.71 0 010 5.553zm1.691-10.477c1.954 0 3.37.514 3.928 1.445.333.56.388 1.281.156 2.14-.222.827-.699 1.711-1.345 2.61a23.988 23.988 0 00-2.61-2.318 26.005 26.005 0 00-.758-3.85c.212-.01.429-.027.63-.027zm.34 6.572c.412.373.796.75 1.153 1.129-.357.379-.74.755-1.153 1.128.012-.374.027-.746.027-1.129 0-.382-.014-.754-.027-1.128zm3.586 7.383c-.613 1.029-2.282 1.54-4.556 1.42.335-1.19.59-2.482.758-3.852a23.921 23.921 0 002.61-2.317c.646.898 1.124 1.783 1.346 2.61.231.858.177 1.579-.158 2.14z"/>
</svg>
