<svg xmlns="http://www.w3.org/2000/svg" xmlns:xlink="http://www.w3.org/1999/xlink"><symbol id="arrow-down" viewBox="0 0 21 46">
  
  <mask id="a" fill="#fff">
    <path fill-rule="evenodd" d="M21 10.5c0 .168-.004.334-.012.5H21v25h-.012c-.26 5.567-4.857 10-10.488 10C4.869 46 .273 41.567.012 36H0V11h.012A10.677 10.677 0 010 10.5C0 4.701 4.701 0 10.5 0S21 4.701 21 10.5z" clip-rule="evenodd"/>
  </mask>
  <path fill="#fff" fill-opacity=".5" d="M20.988 11l-.999-.047L19.94 12h1.048v-1zM21 11h1v-1h-1v1zm0 25v1h1v-1h-1zm-.012 0v-1h-.954l-.045.953 1 .047zM.012 36l.999-.047L.966 35H.012v1zM0 36h-1v1h1v-1zm0-25v-1h-1v1h1zm.012 0v1H1.06l-.05-1.047L.013 11zm21.975.047c.009-.181.013-.364.013-.547h-2c0 .152-.004.303-.01.453l1.997.094zM21 10h-.012v2H21v-2zm1 25.5V11h-2v24.5h2zm0 .5v-.5h-2v.5h2zm-1.012 1H21v-2h-.012v2zm-.999-1.047A9.5 9.5 0 0110.5 45v2c6.168 0 11.201-4.855 11.487-10.953l-1.998-.094zM10.5 45a9.5 9.5 0 01-9.49-9.047l-1.997.094C-.701 42.145 4.332 47 10.5 47v-2zM0 37h.012v-2H0v2zm-1-1.5v.5h2v-.5h-2zM-1 11v24.5h2V11h-2zm1.012-1H0v2h.012v-2zM-1 10.5c0 .183.004.366.013.547l1.998-.094A9.673 9.673 0 011 10.5h-2zM10.5-1C4.149-1-1 4.149-1 10.5h2A9.5 9.5 0 0110.5 1v-2zM22 10.5C22 4.149 16.851-1 10.5-1v2a9.5 9.5 0 019.5 9.5h2z" mask="url(#a)"/>
  <path fill="#FCFCFC" d="M10.646 37.354a.5.5 0 00.708 0l3.182-3.182a.5.5 0 10-.708-.707L11 36.293l-2.828-2.828a.5.5 0 10-.708.707l3.182 3.182zM10.5 10v27h1V10h-1z"/>
</symbol><symbol id="arrow-next" viewBox="0 0 27 27">
  
  <circle cx="13.5" cy="13.5" r="13.5" fill-opacity=".05"/>
  <circle cx="13.5" cy="13.5" r="13" stroke="#fff" stroke-opacity=".5"/>
  <path fill="#F4F4ED" d="M17.791 13.854a.5.5 0 000-.708L14.61 9.964a.5.5 0 10-.707.708L16.73 13.5l-2.828 2.828a.5.5 0 10.707.707l3.182-3.181zM9.562 14h7.876v-1H9.563v1z"/>
</symbol><symbol id="arrow-prev" viewBox="0 0 27 27">
  
  <circle r="13.5" fill="#C4C4C4" fill-opacity=".05" transform="matrix(-1 0 0 1 13.5 13.5)"/>
  <circle r="13" stroke="#fff" stroke-opacity=".5" transform="matrix(-1 0 0 1 13.5 13.5)"/>
  <path fill="#F4F4ED" d="M9.209 13.854a.5.5 0 010-.708l3.182-3.182a.5.5 0 11.707.708L10.27 13.5l2.828 2.828a.5.5 0 11-.707.707l-3.182-3.181zm8.229.146H9.563v-1h7.874v1z"/>
</symbol><symbol id="axe-icon" viewBox="0 0 72 72">
  
  <circle cx="36" cy="36" r="36" fill="#C4C4C4" fill-opacity=".02"/>
  <circle cx="36" cy="36" r="35.5" stroke="#fff" stroke-opacity=".1"/>
  <path fill="#00F0B5" d="M45.426 31.395l-1.889-1.89.966-.965c.5-.5.5-1.31 0-1.809l-1.357-1.357a1.275 1.275 0 00-.904-.374c-.328 0-.655.125-.905.375l-.965.965-.965-.965a1.275 1.275 0 00-.905-.375c-.327 0-.655.125-.904.375L33.74 29.23c-.5.5-.5 1.31 0 1.808l.966.966-9.918 9.918c-.5.5-.5 1.31 0 1.809l1.356 1.357c.25.25.577.374.905.374.327 0 .654-.125.904-.374l9.918-9.919 1.89 1.89v4.566h1.278a8.953 8.953 0 008.953-8.952v-1.28h-4.567zm-3.185-5.116l1.357 1.356-.965.966-1.357-1.357.965-.965zM27.05 44.184l-1.357-1.356 9.918-9.919 1.357 1.357-9.918 9.918zm13.99-3.837V36.53l-6.394-6.395L38.5 26.28h.001l6.395 6.395h3.817c0 4.23-3.442 7.673-7.674 7.673z"/>
</symbol><symbol id="brain-icon" viewBox="0 0 72 72">
  
  <circle cx="36" cy="36" r="36" fill="#C4C4C4" fill-opacity=".02"/>
  <circle cx="36" cy="36" r="35.5" stroke="#fff" stroke-opacity=".1"/>
  <path fill="#F61067" d="M48.295 34.43c.87-2.704-.997-4.624-2.038-5.227.133-1.87-1.283-3.69-3.31-3.94A3.775 3.775 0 0039.49 23c-1.22 0-2.296.588-2.989 1.484A3.773 3.773 0 0033.511 23a3.776 3.776 0 00-3.46 2.262c-2.025.252-3.441 2.071-3.309 3.94-1.041.604-2.906 2.524-2.038 5.227A4.51 4.51 0 0023 37.94c0 1.625.864 3.096 2.246 3.898-.113 2.391 1.821 4.402 4.216 4.34a4.143 4.143 0 003.675 2.235 4.153 4.153 0 003.363-1.725 4.153 4.153 0 003.363 1.725 4.143 4.143 0 003.675-2.235c2.395.062 4.328-1.95 4.216-4.34A4.495 4.495 0 0050 37.939c0-1.367-.64-2.659-1.705-3.51zm-12.592-4.577a2.775 2.775 0 01-2.102 2.682.39.39 0 00-.29.38v.803c0 .252.233.442.481.392a4.4 4.4 0 001.91-.913v11.07a2.564 2.564 0 01-2.565 2.556c-1.582 0-2.195-1.082-2.635-2.392-.809.136-.908.16-1.1.16a2.564 2.564 0 01-2.566-2.557c0-.308.042-.454.182-1.14-1.263-.521-2.424-1.202-2.424-2.955 0-1.68 1.142-2.33 2.13-2.895-.626-1.276-.636-1.45-.636-1.944 0-1.683 1.087-2.405 2.45-2.962-.124-.541-.208-.825-.208-1.133 0-1.198.973-2.173 2.257-2.173h.02l.633.013c.293-1.139.745-2.257 2.271-2.257a2.19 2.19 0 012.192 2.184v3.08zm10.28 11.041c.139.686.181.832.181 1.14 0 1.41-1.15 2.556-2.565 2.556-.193 0-.292-.023-1.1-.159-.441 1.31-1.054 2.393-2.636 2.393a2.564 2.564 0 01-2.566-2.556V33.197a4.4 4.4 0 001.91.913c.249.05.481-.14.481-.392v-.803a.39.39 0 00-.289-.38 2.775 2.775 0 01-2.102-2.682v-3.08a2.19 2.19 0 012.192-2.185c1.526 0 1.978 1.118 2.271 2.257l.632-.013h.02c1.285 0 2.258.975 2.258 2.174 0 .307-.085.591-.209 1.132 1.363.556 2.45 1.28 2.45 2.962 0 .494-.01.668-.635 1.944.988.565 2.13 1.215 2.13 2.895 0 1.754-1.161 2.434-2.424 2.955z"/>
</symbol><symbol id="fb-icon" viewBox="0 0 18 18">
  
  <path fill="#FCFCFC" d="M18 .992v16.012c0 .55-.446.992-.992.992h-4.589v-6.967h2.339l.35-2.716h-2.693V6.577c0-.787.217-1.322 1.346-1.322H15.2v-2.43c-.25-.033-1.101-.109-2.098-.109-2.073 0-3.495 1.266-3.495 3.592v2.005H7.26v2.716h2.347V18H.992A.995.995 0 010 17.008V.992C0 .446.446 0 .992 0h16.012c.55 0 .996.446.996.992z" opacity=".9"/>
</symbol><symbol id="instagramm-icon" viewBox="0 0 18 18">
  
  <path fill="#FCFCFC" d="M9.002 4.384a4.607 4.607 0 00-4.614 4.614 4.607 4.607 0 004.614 4.614 4.607 4.607 0 004.614-4.614 4.607 4.607 0 00-4.614-4.614zm0 7.614c-1.65 0-3-1.346-3-3s1.346-3 3-3 3 1.346 3 3-1.35 3-3 3zm5.879-7.803c0 .599-.482 1.076-1.076 1.076a1.076 1.076 0 111.076-1.076zm3.056 1.093c-.069-1.442-.398-2.719-1.454-3.771C15.431.465 14.154.136 12.713.063c-1.486-.084-5.94-.084-7.425 0-1.438.069-2.715.398-3.771 1.45S.136 3.842.063 5.283c-.084 1.486-.084 5.94 0 7.425.069 1.442.398 2.719 1.454 3.771s2.329 1.381 3.77 1.454c1.486.084 5.94.084 7.425 0 1.442-.069 2.719-.398 3.771-1.454 1.052-1.052 1.381-2.329 1.454-3.77.084-1.486.084-5.936 0-7.421zm-1.92 9.015a3.037 3.037 0 01-1.71 1.71c-1.185.47-3.996.362-5.305.362-1.31 0-4.124.104-5.305-.362a3.037 3.037 0 01-1.71-1.71c-.47-1.185-.362-3.996-.362-5.305 0-1.31-.104-4.124.362-5.305a3.037 3.037 0 011.71-1.71c1.185-.47 3.996-.362 5.305-.362 1.31 0 4.124-.104 5.305.362.787.313 1.393.92 1.71 1.71.47 1.185.362 3.996.362 5.305 0 1.31.108 4.124-.362 5.305z" opacity=".9"/>
</symbol><symbol id="logo" viewBox="0 0 95 24">
  
  <path fill="#FCFCFC" d="M5.672.48v13.56h7.08V18h-12V.48h4.92zm12.165 6.528C18.99 5.856 20.613 5.28 22.71 5.28s3.72.576 4.872 1.728c1.152 1.152 1.729 2.736 1.729 4.752 0 2.016-.576 3.6-1.729 4.752-1.151 1.152-2.776 1.728-4.872 1.728s-3.72-.576-4.872-1.728c-1.151-1.152-1.727-2.736-1.727-4.752 0-2.016.576-3.6 1.727-4.752zm3.265 7.224c.351.496.887.744 1.607.744s1.256-.248 1.608-.744c.352-.496.529-1.32.529-2.472s-.177-1.976-.529-2.472c-.352-.496-.887-.744-1.608-.744-.72 0-1.256.248-1.607.744-.352.496-.529 1.32-.529 2.472s.177 1.976.529 2.472zM37.704 5.52L37.8 7.2h.048c1.04-1.28 2.272-1.92 3.696-1.92 1.504 0 2.696.568 3.576 1.704.896 1.12 1.344 2.712 1.344 4.776 0 2.016-.464 3.6-1.392 4.752-.912 1.152-2.088 1.728-3.528 1.728-1.408 0-2.552-.56-3.432-1.68h-.048v6.72h-4.56V5.52h4.2zm4.44 6.24c0-.992-.184-1.736-.552-2.232-.352-.512-.848-.768-1.488-.768-.624 0-1.12.256-1.488.768-.368.496-.552 1.2-.552 2.112v.24c0 .928.184 1.64.552 2.136.368.496.864.744 1.488.744.592 0 1.08-.256 1.464-.768.384-.528.576-1.272.576-2.232zm12.818-6.24l.096 1.68h.048c1.04-1.28 2.272-1.92 3.696-1.92 1.504 0 2.696.568 3.576 1.704.896 1.12 1.344 2.712 1.344 4.776 0 2.016-.464 3.6-1.392 4.752-.912 1.152-2.088 1.728-3.528 1.728-1.408 0-2.552-.56-3.432-1.68h-.048v6.72h-4.56V5.52h4.2zm4.44 6.24c0-.992-.184-1.736-.552-2.232-.352-.512-.848-.768-1.488-.768-.624 0-1.12.256-1.488.768-.368.496-.552 1.2-.552 2.112v.24c0 .928.184 1.64.552 2.136.368.496.864.744 1.488.744.592 0 1.08-.256 1.464-.768.384-.528.576-1.272.576-2.232zm12.476-1.2h4.056c0-1.52-.68-2.28-2.04-2.28-1.232 0-1.904.76-2.016 2.28zm.048 2.64c.272 1.28 1.184 1.92 2.736 1.92a7.4 7.4 0 003.432-.84l.96 3c-1.472.64-3.072.96-4.8.96-2.064 0-3.72-.584-4.968-1.752-1.248-1.168-1.872-2.744-1.872-4.728 0-2 .568-3.576 1.704-4.728 1.152-1.168 2.704-1.752 4.656-1.752 2 0 3.56.568 4.68 1.704 1.12 1.12 1.68 2.712 1.68 4.776 0 .432-.04.912-.12 1.44h-8.088zm22.588-7.92v3.6c-1.792 0-3.144.336-4.056 1.008-.912.672-1.368 1.616-1.368 2.832V18h-4.656V5.52h4.296l.024 2.4h.048c1.376-1.76 3.28-2.64 5.712-2.64z"/>
</symbol><symbol id="m-icon" viewBox="0 0 18 15">
  
  <path fill="#FCFCFC" d="M2.132 2.914a.703.703 0 00-.227-.588L.227.3V0h5.217l4.034 8.846L13.025 0H18v.301l-1.436 1.377a.419.419 0 00-.16.402v10.122a.419.419 0 00.16.402l1.402 1.377v.301h-7.059v-.301l1.455-1.41c.142-.142.142-.187.142-.402v-8.18L8.459 14.256h-.547L3.208 3.99v6.881c-.041.29.056.58.26.789l1.89 2.292v.302H0v-.298l1.89-2.296a.907.907 0 00.242-.789V2.914z" opacity=".9"/>
</symbol><symbol id="mail-icon" viewBox="0 0 12 9">
  
  <path fill="#FCFCFC" d="M10.875 0h-9.75C.504 0 0 .504 0 1.125v6.75C0 8.496.504 9 1.125 9h9.75C11.496 9 12 8.496 12 7.875v-6.75C12 .504 11.496 0 10.875 0zm-9.75.75h9.75c.206 0 .375.169.375.375v.97c-.513.434-1.247 1.032-3.53 2.843C7.324 5.252 6.544 6.01 6 6c-.544.01-1.327-.748-1.72-1.062C1.997 3.127 1.263 2.528.75 2.095v-.97C.75.919.919.75 1.125.75zm9.75 7.5h-9.75a.376.376 0 01-.375-.375V3.07c.534.439 1.378 1.116 3.063 2.454.48.385 1.33 1.23 2.187 1.226.853.007 1.695-.832 2.187-1.226A277.865 277.865 0 0011.25 3.07v4.805a.376.376 0 01-.375.375z"/>
</symbol><symbol id="nav-btn" viewBox="0 0 27 16">
  
  <path fill="#FCFCFC" d="M0 0h27v2H0zM0 7h27v2H0zM9 14h18v2H9z"/>
</symbol><symbol id="phone" viewBox="0 0 18 29">
  
  <path fill="#FCFCFC" d="M12.6 5.4v13.5H5.4V5.4h7.2zM15.3 0H2.7A2.7 2.7 0 000 2.7v23.4a2.7 2.7 0 002.7 2.7h12.6a2.7 2.7 0 002.7-2.7V2.7A2.7 2.7 0 0015.3 0zM2.7 27a.903.903 0 01-.9-.9V2.7c0-.495.405-.9.9-.9h12.6c.495 0 .9.405.9.9v23.4c0 .495-.405.9-.9.9H2.7zM13.725 3.6h-9.45a.677.677 0 00-.675.675v15.75c0 .371.304.675.675.675h9.45a.677.677 0 00.675-.675V4.275a.677.677 0 00-.675-.675zm-2.7 19.8h-4.05a.677.677 0 00-.675.675v.45c0 .371.304.675.675.675h4.05a.677.677 0 00.675-.675v-.45a.677.677 0 00-.675-.675z"/>
</symbol><symbol id="react-icon" viewBox="0 0 72 72">
  
  <circle cx="36" cy="36" r="36" fill="#C4C4C4" fill-opacity=".02"/>
  <circle cx="36" cy="36" r="35.5" stroke="#fff" stroke-opacity=".1"/>
  <path fill="#F61067" d="M36.5 33.053a3.38 3.38 0 00-3.376 3.376 3.38 3.38 0 003.376 3.374 3.38 3.38 0 003.376-3.374 3.38 3.38 0 00-3.376-3.376zm0 4.822a1.446 1.446 0 110-2.893 1.446 1.446 0 010 2.893zm11.374-1.447c.937-1.221 1.61-2.448 1.923-3.615.363-1.363.237-2.617-.365-3.628-1.1-1.838-3.638-2.59-6.842-2.316C41.189 23.279 39.004 21 36.5 21s-4.689 2.279-6.09 5.868c-3.204-.273-5.742.478-6.84 2.318-.604 1.01-.73 2.264-.367 3.627.314 1.167.986 2.394 1.923 3.615-.937 1.222-1.61 2.449-1.923 3.617-.363 1.362-.237 2.616.365 3.627.955 1.597 2.99 2.382 5.608 2.382.384 0 .814-.07 1.22-.103 1.4 3.611 3.591 5.906 6.104 5.906s4.703-2.295 6.103-5.906c.407.034.837.103 1.22.103 2.617 0 4.653-.785 5.607-2.382.604-1.01.73-2.265.367-3.627-.314-1.168-.986-2.395-1.923-3.617zm-22.806-4.115c-.232-.858-.177-1.579.158-2.14.556-.931 1.972-1.444 3.926-1.444.2 0 .418.016.63.027a26.02 26.02 0 00-.758 3.85 23.931 23.931 0 00-2.611 2.317c-.646-.898-1.123-1.783-1.345-2.61zm3.744 5.244a19.91 19.91 0 01-1.153-1.129c.356-.379.74-.755 1.153-1.128-.013.374-.028.746-.028 1.129 0 .382.015.754.028 1.128zm-3.588 5.126c-.333-.56-.388-1.28-.156-2.14.222-.826.7-1.711 1.345-2.609.762.794 1.645 1.57 2.61 2.317.17 1.37.424 2.664.759 3.854-2.273.117-3.942-.393-4.558-1.422zm16.561-11.615a31.566 31.566 0 00-1.556-.936 31.26 31.26 0 00-1.162-.612c.768-.23 1.502-.402 2.204-.53.206.684.377 1.378.514 2.078zm-5.285-8.14c1.45 0 2.984 1.57 4.11 4.217-1.308.26-2.693.673-4.11 1.227a24.488 24.488 0 00-4.11-1.228c1.126-2.647 2.66-4.215 4.11-4.215zm-4.771 6.062c.702.128 1.436.3 2.203.53-.387.195-.775.395-1.161.612-.538.3-1.052.616-1.557.936a21.9 21.9 0 01.515-2.078zm-.515 12.799c.506.32 1.019.637 1.557.936.404.226.806.391 1.21.594-.783.237-1.536.42-2.252.55a21.926 21.926 0 01-.515-2.08zm5.286 8.14c-1.456 0-2.997-1.581-4.124-4.248a24.305 24.305 0 004.124-1.225 24.25 24.25 0 004.123 1.225c-1.127 2.667-2.667 4.248-4.123 4.248zm4.771-6.06a20.453 20.453 0 01-2.25-.55c.403-.203.804-.368 1.209-.593a31.49 31.49 0 001.556-.937c-.145.736-.32 1.427-.515 2.08zm.886-4.664a28.483 28.483 0 01-2.865 1.837 28.65 28.65 0 01-2.79 1.362 28.76 28.76 0 01-2.794-1.362 28.589 28.589 0 01-2.865-1.837 29.51 29.51 0 010-5.553 28.483 28.483 0 015.656-3.204c.912.386 1.846.84 2.792 1.367a28.59 28.59 0 012.866 1.837 29.71 29.71 0 010 5.553zm1.691-10.477c1.954 0 3.37.514 3.928 1.445.333.56.388 1.281.156 2.14-.222.827-.699 1.711-1.345 2.61a23.988 23.988 0 00-2.61-2.318 26.005 26.005 0 00-.758-3.85c.212-.01.429-.027.63-.027zm.34 6.572c.412.373.796.75 1.153 1.129-.357.379-.74.755-1.153 1.128.012-.374.027-.746.027-1.129 0-.382-.014-.754-.027-1.128zm3.586 7.383c-.613 1.029-2.282 1.54-4.556 1.42.335-1.19.59-2.482.758-3.852a23.921 23.921 0 002.61-2.317c.646.898 1.124 1.783 1.346 2.61.231.858.177 1.579-.158 2.14z"/>
</symbol><symbol id="scales-icon" viewBox="0 0 72 72">
  
  <circle cx="36" cy="36" r="36" fill="#C4C4C4" fill-opacity=".02"/>
  <circle cx="36" cy="36" r="35.5" stroke="#fff" stroke-opacity=".1"/>
  <path fill="#F67110" d="M49.764 35.424L45.164 28a.673.673 0 00-.564-.3c-.215 0-.43.1-.563.3l-4.6 7.424a1.31 1.31 0 00-.233.829A5.41 5.41 0 0044.6 41.2a5.41 5.41 0 005.396-4.947 1.31 1.31 0 00-.232-.829zM44.6 39.85c-1.754 0-3.272-1.145-3.83-2.7h7.644c-.566 1.57-2.072 2.7-3.814 2.7zm-3.808-4.05l3.81-6.15 3.836 6.15h-7.646zm4.82 9.45h-8.437V30.305A2.69 2.69 0 0039.1 28.39l6.255-2.093a.338.338 0 00.214-.427l-.215-.64a.338.338 0 00-.427-.213l-5.84 1.953A2.692 2.692 0 0036.5 25a2.7 2.7 0 00-2.7 2.7c0 .346.07.674.192.977L27.645 30.8a.338.338 0 00-.214.427l.215.64c.059.177.25.272.427.213l6.769-2.264c.287.226.619.394.983.488v15.958c0 .187.151.338.338.338h9.45a.337.337 0 00.337-.338v-.675a.338.338 0 00-.338-.337zM35.15 27.7c0-.744.606-1.35 1.35-1.35.744 0 1.35.606 1.35 1.35 0 .744-.606 1.35-1.35 1.35-.744 0-1.35-.606-1.35-1.35zm-6.187 5.7a.672.672 0 00-.563-.3c-.215 0-.43.1-.563.3l-4.6 7.424a1.31 1.31 0 00-.233.829A5.41 5.41 0 0028.4 46.6a5.41 5.41 0 005.396-4.947 1.31 1.31 0 00-.232-.829l-4.6-7.424zM28.4 45.25c-1.754 0-3.272-1.145-3.83-2.7h7.645c-.567 1.57-2.074 2.7-3.815 2.7zm-3.808-4.05l3.81-6.15 3.836 6.15h-7.646z"/>
</symbol><symbol id="skittles-icon" viewBox="0 0 72 72">
  
  <circle cx="36" cy="36" r="36" fill="#C4C4C4" fill-opacity=".02"/>
  <circle cx="36" cy="36" r="35.5" stroke="#fff" stroke-opacity=".1"/>
  <path fill="#00F0B5" d="M49.73 39.562c-.73-3.06-2.772-5.017-3.031-7.751-.191-1.952 1.192-3.23 1.052-5.592-.147-2.436-1.851-4.213-4.05-4.219-2.2.006-3.899 1.783-4.045 4.219-.14 2.363 1.237 3.645 1.052 5.592-.259 2.734-2.307 4.697-3.032 7.751-.704 2.943.022 7.87 1.586 10.762l.253.472h8.382l.253-.472c1.558-2.892 2.284-7.82 1.58-10.762zm-3.78-13.236c.096 1.609-.905 2.773-1.051 4.675h-2.397c-.146-1.907-1.153-3.06-1.052-4.675.203-3.38 4.298-3.38 4.5 0zm.85 22.67h-6.2c-1.18-2.543-1.743-6.677-1.18-9.017.601-2.52 2.356-4.332 2.93-7.184h2.7c.574 2.852 2.33 4.663 2.931 7.184.557 2.346-.005 6.474-1.181 9.017zm-14.502-17.18c-.186-1.952 1.192-3.229 1.052-5.591-.147-2.442-1.851-4.214-4.05-4.22-2.2 0-3.899 1.778-4.05 4.22-.147 2.362 1.237 3.64 1.051 5.591-.259 2.74-2.306 4.697-3.032 7.752-.703 2.942.023 7.876 1.586 10.767l.254.472h8.381l.253-.472c1.564-2.892 2.29-7.82 1.587-10.767-.726-3.055-2.773-5.018-3.032-7.752zm-.748-5.485c.095 1.615-.906 2.763-1.052 4.67H28.1c-.146-1.907-1.153-3.055-1.052-4.67.203-3.38 4.298-3.38 4.5 0zm.85 22.67h-6.2c-1.181-2.542-1.744-6.676-1.181-9.017.602-2.52 2.362-4.331 2.93-7.183h2.7c.574 2.852 2.33 4.663 2.931 7.183.563 2.34 0 6.475-1.18 9.018z"/>
</symbol><symbol id="tower-icon" viewBox="0 0 72 72">
  
  <circle cx="36" cy="36" r="36" fill="#C4C4C4" fill-opacity=".02"/>
  <circle cx="36" cy="36" r="35.5" stroke="#fff" stroke-opacity=".1"/>
  <path fill="#F67110" d="M28.625 32.5c.013 2.599-.032 7.929-2.36 15.75h20.468c-2.325-7.792-2.37-13.135-2.358-15.75l2.88-2.88a1.687 1.687 0 00.495-1.194v-7.738c0-.932-.755-1.688-1.688-1.688H26.939c-.932 0-1.688.756-1.688 1.688v7.738c0 .448.178.877.494 1.193l2.881 2.881zM27.5 21.25h3.375v3.375h2.25V21.25h6.75v3.375h2.25V21.25H45.5v6.943l-3.37 3.37c-.014 2.876-.082 7.477 1.654 14.437h-14.57c1.737-6.974 1.67-11.563 1.656-14.437l-3.37-3.37V21.25zM38.469 37H34.53v-3.938a1.969 1.969 0 013.938 0V37zM50 51.344v.562a.844.844 0 01-.844.844H23.844a.844.844 0 01-.844-.844v-.562c0-.466.378-.844.844-.844h25.312c.466 0 .844.378.844.844z"/>
</symbol><symbol id="twitter-icon" viewBox="0 0 18 15">
  
  <path fill="#FCFCFC" d="M16.15 3.643c.011.16.011.32.011.48C16.161 9 12.45 14.62 5.665 14.62c-2.09 0-4.032-.605-5.665-1.656.297.035.582.046.89.046a7.389 7.389 0 004.58-1.576 3.696 3.696 0 01-3.448-2.559c.228.035.456.057.696.057.332 0 .663-.045.971-.125a3.69 3.69 0 01-2.958-3.62V5.14a3.715 3.715 0 001.667.468A3.687 3.687 0 01.754 2.536c0-.686.182-1.314.502-1.862a10.486 10.486 0 007.607 3.86 4.164 4.164 0 01-.091-.845A3.687 3.687 0 0112.46 0a3.68 3.68 0 012.695 1.165 7.264 7.264 0 002.341-.89 3.68 3.68 0 01-1.621 2.032A7.396 7.396 0 0018 1.737a7.932 7.932 0 01-1.85 1.906z" opacity=".9"/>
</symbol><symbol id="youtube-icon" viewBox="0 0 26 18">
  
  <path fill="#FCFCFC" d="M25.065 2.816A3.217 3.217 0 0022.802.538C20.805 0 12.8 0 12.8 0S4.795 0 2.798.538A3.217 3.217 0 00.535 2.816C0 4.826 0 9.018 0 9.018s0 4.193.535 6.202c.294 1.109 1.162 1.945 2.263 2.242C4.795 18 12.8 18 12.8 18s8.005 0 10.002-.538c1.101-.297 1.969-1.133 2.263-2.242.535-2.01.535-6.202.535-6.202s0-4.192-.535-6.202zM10.182 12.825V5.212l6.69 3.806-6.69 3.807z" opacity=".9"/>
</symbol></svg>