<svg xmlns="http://www.w3.org/2000/svg" fill="none" viewBox="0 0 72 72">
  <defs/>
  <circle cx="36" cy="36" r="36" fill="#C4C4C4" fill-opacity=".02"/>
  <circle cx="36" cy="36" r="35.5" stroke="#fff" stroke-opacity=".1"/>
  <path fill="#F67110" d="M28.625 32.5c.013 2.599-.032 7.929-2.36 15.75h20.468c-2.325-7.792-2.37-13.135-2.358-15.75l2.88-2.88a1.687 1.687 0 00.495-1.194v-7.738c0-.932-.755-1.688-1.688-1.688H26.939c-.932 0-1.688.756-1.688 1.688v7.738c0 .448.178.877.494 1.193l2.881 2.881zM27.5 21.25h3.375v3.375h2.25V21.25h6.75v3.375h2.25V21.25H45.5v6.943l-3.37 3.37c-.014 2.876-.082 7.477 1.654 14.437h-14.57c1.737-6.974 1.67-11.563 1.656-14.437l-3.37-3.37V21.25zM38.469 37H34.53v-3.938a1.969 1.969 0 013.938 0V37zM50 51.344v.562a.844.844 0 01-.844.844H23.844a.844.844 0 01-.844-.844v-.562c0-.466.378-.844.844-.844h25.312c.466 0 .844.378.844.844z"/>
</svg>
