<svg xmlns="http://www.w3.org/2000/svg" fill="none" viewBox="0 0 95 24">
  <defs/>
  <path fill="#FCFCFC" d="M5.672.48v13.56h7.08V18h-12V.48h4.92zm12.165 6.528C18.99 5.856 20.613 5.28 22.71 5.28s3.72.576 4.872 1.728c1.152 1.152 1.729 2.736 1.729 4.752 0 2.016-.576 3.6-1.729 4.752-1.151 1.152-2.776 1.728-4.872 1.728s-3.72-.576-4.872-1.728c-1.151-1.152-1.727-2.736-1.727-4.752 0-2.016.576-3.6 1.727-4.752zm3.265 7.224c.351.496.887.744 1.607.744s1.256-.248 1.608-.744c.352-.496.529-1.32.529-2.472s-.177-1.976-.529-2.472c-.352-.496-.887-.744-1.608-.744-.72 0-1.256.248-1.607.744-.352.496-.529 1.32-.529 2.472s.177 1.976.529 2.472zM37.704 5.52L37.8 7.2h.048c1.04-1.28 2.272-1.92 3.696-1.92 1.504 0 2.696.568 3.576 1.704.896 1.12 1.344 2.712 1.344 4.776 0 2.016-.464 3.6-1.392 4.752-.912 1.152-2.088 1.728-3.528 1.728-1.408 0-2.552-.56-3.432-1.68h-.048v6.72h-4.56V5.52h4.2zm4.44 6.24c0-.992-.184-1.736-.552-2.232-.352-.512-.848-.768-1.488-.768-.624 0-1.12.256-1.488.768-.368.496-.552 1.2-.552 2.112v.24c0 .928.184 1.64.552 2.136.368.496.864.744 1.488.744.592 0 1.08-.256 1.464-.768.384-.528.576-1.272.576-2.232zm12.818-6.24l.096 1.68h.048c1.04-1.28 2.272-1.92 3.696-1.92 1.504 0 2.696.568 3.576 1.704.896 1.12 1.344 2.712 1.344 4.776 0 2.016-.464 3.6-1.392 4.752-.912 1.152-2.088 1.728-3.528 1.728-1.408 0-2.552-.56-3.432-1.68h-.048v6.72h-4.56V5.52h4.2zm4.44 6.24c0-.992-.184-1.736-.552-2.232-.352-.512-.848-.768-1.488-.768-.624 0-1.12.256-1.488.768-.368.496-.552 1.2-.552 2.112v.24c0 .928.184 1.64.552 2.136.368.496.864.744 1.488.744.592 0 1.08-.256 1.464-.768.384-.528.576-1.272.576-2.232zm12.476-1.2h4.056c0-1.52-.68-2.28-2.04-2.28-1.232 0-1.904.76-2.016 2.28zm.048 2.64c.272 1.28 1.184 1.92 2.736 1.92a7.4 7.4 0 003.432-.84l.96 3c-1.472.64-3.072.96-4.8.96-2.064 0-3.72-.584-4.968-1.752-1.248-1.168-1.872-2.744-1.872-4.728 0-2 .568-3.576 1.704-4.728 1.152-1.168 2.704-1.752 4.656-1.752 2 0 3.56.568 4.68 1.704 1.12 1.12 1.68 2.712 1.68 4.776 0 .432-.04.912-.12 1.44h-8.088zm22.588-7.92v3.6c-1.792 0-3.144.336-4.056 1.008-.912.672-1.368 1.616-1.368 2.832V18h-4.656V5.52h4.296l.024 2.4h.048c1.376-1.76 3.28-2.64 5.712-2.64z"/>
</svg>
