<svg xmlns="http://www.w3.org/2000/svg" fill="none" viewBox="0 0 72 72">
  <defs/>
  <circle cx="36" cy="36" r="36" fill="#C4C4C4" fill-opacity=".02"/>
  <circle cx="36" cy="36" r="35.5" stroke="#fff" stroke-opacity=".1"/>
  <path fill="#F67110" d="M49.764 35.424L45.164 28a.673.673 0 00-.564-.3c-.215 0-.43.1-.563.3l-4.6 7.424a1.31 1.31 0 00-.233.829A5.41 5.41 0 0044.6 41.2a5.41 5.41 0 005.396-4.947 1.31 1.31 0 00-.232-.829zM44.6 39.85c-1.754 0-3.272-1.145-3.83-2.7h7.644c-.566 1.57-2.072 2.7-3.814 2.7zm-3.808-4.05l3.81-6.15 3.836 6.15h-7.646zm4.82 9.45h-8.437V30.305A2.69 2.69 0 0039.1 28.39l6.255-2.093a.338.338 0 00.214-.427l-.215-.64a.338.338 0 00-.427-.213l-5.84 1.953A2.692 2.692 0 0036.5 25a2.7 2.7 0 00-2.7 2.7c0 .346.07.674.192.977L27.645 30.8a.338.338 0 00-.214.427l.215.64c.059.177.25.272.427.213l6.769-2.264c.287.226.619.394.983.488v15.958c0 .187.151.338.338.338h9.45a.337.337 0 00.337-.338v-.675a.338.338 0 00-.338-.337zM35.15 27.7c0-.744.606-1.35 1.35-1.35.744 0 1.35.606 1.35 1.35 0 .744-.606 1.35-1.35 1.35-.744 0-1.35-.606-1.35-1.35zm-6.187 5.7a.672.672 0 00-.563-.3c-.215 0-.43.1-.563.3l-4.6 7.424a1.31 1.31 0 00-.233.829A5.41 5.41 0 0028.4 46.6a5.41 5.41 0 005.396-4.947 1.31 1.31 0 00-.232-.829l-4.6-7.424zM28.4 45.25c-1.754 0-3.272-1.145-3.83-2.7h7.645c-.567 1.57-2.074 2.7-3.815 2.7zm-3.808-4.05l3.81-6.15 3.836 6.15h-7.646z"/>
</svg>
