<svg xmlns="http://www.w3.org/2000/svg" fill="none" viewBox="0 0 72 72">
  <defs/>
  <circle cx="36" cy="36" r="36" fill="#C4C4C4" fill-opacity=".02"/>
  <circle cx="36" cy="36" r="35.5" stroke="#fff" stroke-opacity=".1"/>
  <path fill="#00F0B5" d="M49.73 39.562c-.73-3.06-2.772-5.017-3.031-7.751-.191-1.952 1.192-3.23 1.052-5.592-.147-2.436-1.851-4.213-4.05-4.219-2.2.006-3.899 1.783-4.045 4.219-.14 2.363 1.237 3.645 1.052 5.592-.259 2.734-2.307 4.697-3.032 7.751-.704 2.943.022 7.87 1.586 10.762l.253.472h8.382l.253-.472c1.558-2.892 2.284-7.82 1.58-10.762zm-3.78-13.236c.096 1.609-.905 2.773-1.051 4.675h-2.397c-.146-1.907-1.153-3.06-1.052-4.675.203-3.38 4.298-3.38 4.5 0zm.85 22.67h-6.2c-1.18-2.543-1.743-6.677-1.18-9.017.601-2.52 2.356-4.332 2.93-7.184h2.7c.574 2.852 2.33 4.663 2.931 7.184.557 2.346-.005 6.474-1.181 9.017zm-14.502-17.18c-.186-1.952 1.192-3.229 1.052-5.591-.147-2.442-1.851-4.214-4.05-4.22-2.2 0-3.899 1.778-4.05 4.22-.147 2.362 1.237 3.64 1.051 5.591-.259 2.74-2.306 4.697-3.032 7.752-.703 2.942.023 7.876 1.586 10.767l.254.472h8.381l.253-.472c1.564-2.892 2.29-7.82 1.587-10.767-.726-3.055-2.773-5.018-3.032-7.752zm-.748-5.485c.095 1.615-.906 2.763-1.052 4.67H28.1c-.146-1.907-1.153-3.055-1.052-4.67.203-3.38 4.298-3.38 4.5 0zm.85 22.67h-6.2c-1.181-2.542-1.744-6.676-1.181-9.017.602-2.52 2.362-4.331 2.93-7.183h2.7c.574 2.852 2.33 4.663 2.931 7.183.563 2.34 0 6.475-1.18 9.018z"/>
</svg>
